<svg width="1024" height="1024" viewBox="0 0 1024 1024" fill="none" xmlns="http://www.w3.org/2000/svg">
<path d="M618 270C731.137 270 787.705 270 822.853 305.147C858 340.295 858 396.863 858 510V515C858 628.137 858 684.705 822.853 719.853C787.705 755 731.137 755 618 755H408C294.863 755 238.295 755 203.147 719.853C168 684.705 168 628.137 168 515V510C168 396.863 168 340.295 203.147 305.147C238.295 270 294.863 270 408 270H618ZM448.817 419.826C445.488 418.085 441.5 420.5 441.5 424.257V600.302C441.5 604.044 445.461 606.461 448.789 604.748L618.433 517.411C622.035 515.557 622.051 510.412 618.461 508.534L448.817 419.826Z" fill="white"/>
</svg>
